<svg width="100" height="100" viewBox="0 0 100 100" fill="none" xmlns="http://www.w3.org/2000/svg">
<rect x="0.5" y="0.5" width="99" height="99" stroke="white"/>
<path d="M26.9773 8.27273V17H25.9545L21.1989 10.1477H21.1136V17H20.0568V8.27273H21.0795L25.8523 15.142H25.9375V8.27273H26.9773ZM30.1488 8.27273V17H29.092V8.27273H30.1488ZM39.2905 11H38.2337C38.1712 10.696 38.0618 10.429 37.9055 10.1989C37.7521 9.96875 37.5646 9.77557 37.343 9.61932C37.1243 9.46023 36.8814 9.34091 36.6143 9.26136C36.3473 9.18182 36.0689 9.14205 35.7791 9.14205C35.2507 9.14205 34.772 9.27557 34.343 9.54261C33.9169 9.80966 33.5774 10.2031 33.3246 10.723C33.0746 11.2429 32.9496 11.8807 32.9496 12.6364C32.9496 13.392 33.0746 14.0298 33.3246 14.5497C33.5774 15.0696 33.9169 15.4631 34.343 15.7301C34.772 15.9972 35.2507 16.1307 35.7791 16.1307C36.0689 16.1307 36.3473 16.0909 36.6143 16.0114C36.8814 15.9318 37.1243 15.8139 37.343 15.6577C37.5646 15.4986 37.7521 15.304 37.9055 15.0739C38.0618 14.8409 38.1712 14.5739 38.2337 14.2727H39.2905C39.2109 14.7187 39.0661 15.1179 38.8558 15.4702C38.6456 15.8224 38.3842 16.1222 38.0717 16.3693C37.7592 16.6136 37.4084 16.7997 37.0192 16.9276C36.6328 17.0554 36.2195 17.1193 35.7791 17.1193C35.0348 17.1193 34.3729 16.9375 33.7933 16.5739C33.2138 16.2102 32.7578 15.6932 32.4254 15.0227C32.093 14.3523 31.9268 13.5568 31.9268 12.6364C31.9268 11.7159 32.093 10.9205 32.4254 10.25C32.7578 9.57955 33.2138 9.0625 33.7933 8.69886C34.3729 8.33523 35.0348 8.15341 35.7791 8.15341C36.2195 8.15341 36.6328 8.21733 37.0192 8.34517C37.4084 8.47301 37.7592 8.66051 38.0717 8.90767C38.3842 9.15199 38.6456 9.45028 38.8558 9.80256C39.0661 10.152 39.2109 10.5511 39.2905 11ZM40.9982 17V8.27273H46.2653V9.21023H42.055V12.1591H45.9925V13.0966H42.055V16.0625H46.3335V17H40.9982ZM58.5678 11H57.511C57.4485 10.696 57.3391 10.429 57.1829 10.1989C57.0295 9.96875 56.842 9.77557 56.6204 9.61932C56.4016 9.46023 56.1587 9.34091 55.8917 9.26136C55.6246 9.18182 55.3462 9.14205 55.0565 9.14205C54.5281 9.14205 54.0494 9.27557 53.6204 9.54261C53.1942 9.80966 52.8548 10.2031 52.6019 10.723C52.3519 11.2429 52.2269 11.8807 52.2269 12.6364C52.2269 13.392 52.3519 14.0298 52.6019 14.5497C52.8548 15.0696 53.1942 15.4631 53.6204 15.7301C54.0494 15.9972 54.5281 16.1307 55.0565 16.1307C55.3462 16.1307 55.6246 16.0909 55.8917 16.0114C56.1587 15.9318 56.4016 15.8139 56.6204 15.6577C56.842 15.4986 57.0295 15.304 57.1829 15.0739C57.3391 14.8409 57.4485 14.5739 57.511 14.2727H58.5678C58.4883 14.7187 58.3434 15.1179 58.1332 15.4702C57.9229 15.8224 57.6616 16.1222 57.3491 16.3693C57.0366 16.6136 56.6857 16.7997 56.2965 16.9276C55.9102 17.0554 55.4968 17.1193 55.0565 17.1193C54.3121 17.1193 53.6502 16.9375 53.0707 16.5739C52.4911 16.2102 52.0352 15.6932 51.7028 15.0227C51.3704 14.3523 51.2042 13.5568 51.2042 12.6364C51.2042 11.7159 51.3704 10.9205 51.7028 10.25C52.0352 9.57955 52.4911 9.0625 53.0707 8.69886C53.6502 8.33523 54.3121 8.15341 55.0565 8.15341C55.4968 8.15341 55.9102 8.21733 56.2965 8.34517C56.6857 8.47301 57.0366 8.66051 57.3491 8.90767C57.6616 9.15199 57.9229 9.45028 58.1332 9.80256C58.3434 10.152 58.4883 10.5511 58.5678 11ZM60.6335 17H59.5256L62.7301 8.27273H63.821L67.0256 17H65.9176L63.3097 9.65341H63.2415L60.6335 17ZM61.0426 13.5909H65.5085V14.5284H61.0426V13.5909ZM68.3849 17V8.27273H73.6179V9.21023H69.4418V12.1591H73.2259V13.0966H69.4418V17H68.3849ZM75.4279 17V8.27273H80.695V9.21023H76.4847V12.1591H80.4222V13.0966H76.4847V16.0625H80.7631V17H75.4279Z" fill="white"/>
<path d="M15.1824 94V86.7273H17.7251C18.2317 86.7273 18.6495 86.8149 18.9786 86.9901C19.3077 87.1629 19.5527 87.3961 19.7137 87.6896C19.8747 87.9808 19.9552 88.304 19.9552 88.6591C19.9552 88.9716 19.8995 89.2296 19.7883 89.4332C19.6794 89.6368 19.5349 89.7978 19.355 89.9162C19.1775 90.0346 18.9845 90.1222 18.7762 90.179V90.25C18.9987 90.2642 19.2224 90.3423 19.4474 90.4844C19.6723 90.6264 19.8605 90.83 20.012 91.0952C20.1635 91.3603 20.2393 91.6847 20.2393 92.0682C20.2393 92.4328 20.1564 92.7607 19.9907 93.0518C19.825 93.343 19.5634 93.5739 19.2059 93.7443C18.8484 93.9148 18.3832 94 17.8103 94H15.1824ZM16.0631 93.2188H17.8103C18.3856 93.2188 18.7939 93.1075 19.0354 92.8849C19.2793 92.66 19.4012 92.3878 19.4012 92.0682C19.4012 91.822 19.3385 91.5947 19.213 91.3864C19.0875 91.1757 18.9088 91.0076 18.6768 90.8821C18.4448 90.7543 18.1701 90.6903 17.8529 90.6903H16.0631V93.2188ZM16.0631 89.9233H17.6966C17.9618 89.9233 18.2009 89.8712 18.414 89.767C18.6294 89.6629 18.7999 89.5161 18.9253 89.3267C19.0532 89.1373 19.1171 88.9148 19.1171 88.6591C19.1171 88.3395 19.0058 88.0684 18.7833 87.8459C18.5608 87.621 18.208 87.5085 17.7251 87.5085H16.0631V89.9233ZM23.1778 94.1278C22.8322 94.1278 22.5185 94.0627 22.2368 93.9325C21.955 93.8 21.7313 93.6094 21.5656 93.3608C21.3999 93.1098 21.317 92.8068 21.317 92.4517C21.317 92.1392 21.3786 91.8859 21.5017 91.6918C21.6248 91.4953 21.7893 91.3414 21.9953 91.2301C22.2013 91.1188 22.4285 91.036 22.6771 90.9815C22.9281 90.9247 23.1802 90.8797 23.4335 90.8466C23.7649 90.804 24.0336 90.772 24.2396 90.7507C24.4479 90.727 24.5995 90.688 24.6942 90.6335C24.7912 90.5791 24.8398 90.4844 24.8398 90.3494V90.321C24.8398 89.9706 24.7439 89.6984 24.5521 89.5043C24.3627 89.3101 24.0751 89.2131 23.6892 89.2131C23.2891 89.2131 22.9754 89.3007 22.7481 89.4759C22.5209 89.651 22.3611 89.8381 22.2687 90.0369L21.4733 89.7528C21.6153 89.4214 21.8047 89.1634 22.0415 88.9787C22.2806 88.7917 22.541 88.6615 22.8227 88.5881C23.1068 88.5123 23.3862 88.4744 23.6608 88.4744C23.836 88.4744 24.0372 88.4957 24.2645 88.5384C24.4941 88.5786 24.7155 88.6626 24.9285 88.7905C25.144 88.9183 25.3227 89.1113 25.4648 89.3693C25.6068 89.6274 25.6778 89.973 25.6778 90.4062V94H24.8398V93.2614H24.7971C24.7403 93.3797 24.6456 93.5064 24.5131 93.6413C24.3805 93.7763 24.2041 93.8911 23.9839 93.9858C23.7638 94.0805 23.4951 94.1278 23.1778 94.1278ZM23.3057 93.375C23.6371 93.375 23.9165 93.3099 24.1437 93.1797C24.3734 93.0495 24.5462 92.8814 24.6622 92.6754C24.7806 92.4695 24.8398 92.2528 24.8398 92.0256V91.2585C24.8042 91.3011 24.7261 91.3402 24.6054 91.3757C24.487 91.4089 24.3497 91.4384 24.1934 91.4645C24.0396 91.4882 23.8892 91.5095 23.7425 91.5284C23.598 91.545 23.4809 91.5592 23.3909 91.571C23.1731 91.5994 22.9695 91.6456 22.7801 91.7095C22.5931 91.7711 22.4416 91.8646 22.3256 91.9901C22.2119 92.1132 22.1551 92.2812 22.1551 92.4943C22.1551 92.7855 22.2628 93.0057 22.4782 93.1548C22.6961 93.3016 22.9719 93.375 23.3057 93.375ZM27.9887 92.0114L27.9745 90.9744H28.145L30.5313 88.5455H31.5683L29.0257 91.1165H28.9546L27.9887 92.0114ZM27.2075 94V86.7273H28.0455V94H27.2075ZM30.6734 94L28.5427 91.3011L29.1393 90.7188L31.7387 94H30.6734ZM34.7093 94.1136C34.1837 94.1136 33.7303 93.9976 33.3492 93.7656C32.9704 93.5312 32.678 93.2045 32.472 92.7855C32.2684 92.3641 32.1666 91.8741 32.1666 91.3153C32.1666 90.7566 32.2684 90.2642 32.472 89.8381C32.678 89.4096 32.9645 89.0758 33.3314 88.8366C33.7007 88.5952 34.1316 88.4744 34.624 88.4744C34.9081 88.4744 35.1887 88.5218 35.4656 88.6165C35.7426 88.7112 35.9948 88.8651 36.222 89.0781C36.4493 89.2888 36.6304 89.5682 36.7654 89.9162C36.9003 90.2642 36.9678 90.6927 36.9678 91.2017V91.5568H32.7632V90.8324H36.1155C36.1155 90.5246 36.0539 90.25 35.9308 90.0085C35.8101 89.767 35.6373 89.5765 35.4124 89.4368C35.1898 89.2971 34.9271 89.2273 34.624 89.2273C34.2902 89.2273 34.0014 89.3101 33.7575 89.4759C33.5161 89.6392 33.3302 89.8523 33.2 90.1151C33.0698 90.3778 33.0047 90.6596 33.0047 90.9602V91.4432C33.0047 91.8551 33.0757 92.2043 33.2178 92.4908C33.3622 92.7749 33.5622 92.9915 33.8179 93.1406C34.0736 93.2874 34.3707 93.3608 34.7093 93.3608C34.9294 93.3608 35.1283 93.33 35.3058 93.2685C35.4858 93.2045 35.6408 93.1098 35.771 92.9844C35.9012 92.8565 36.0019 92.6979 36.0729 92.5085L36.8825 92.7358C36.7973 93.0104 36.6541 93.2519 36.4529 93.4602C36.2516 93.6662 36.003 93.8272 35.7071 93.9432C35.4112 94.0568 35.0786 94.1136 34.7093 94.1136ZM39.0807 86.7273V94H38.2426V86.7273H39.0807ZM41.1555 96.0455C41.0134 96.0455 40.8867 96.0336 40.7755 96.0099C40.6642 95.9886 40.5873 95.9673 40.5447 95.946L40.7577 95.2074C40.9613 95.2595 41.1412 95.2784 41.2975 95.2642C41.4537 95.25 41.5922 95.1802 41.713 95.0547C41.8361 94.9316 41.9485 94.7315 42.0503 94.4545L42.2066 94.0284L40.1895 88.5455H41.0986L42.6043 92.892H42.6611L44.1668 88.5455H45.0759L42.7606 94.7955C42.6564 95.0772 42.5274 95.3104 42.3735 95.495C42.2196 95.6821 42.0409 95.8205 41.8373 95.9105C41.636 96.0005 41.4088 96.0455 41.1555 96.0455ZM51.0542 94.0994C50.576 94.0994 50.1641 94.0118 49.8184 93.8366C49.4728 93.6615 49.2065 93.4212 49.0194 93.1158C48.8324 92.8104 48.7389 92.4612 48.7389 92.0682C48.7389 91.7652 48.8028 91.4964 48.9307 91.2621C49.0609 91.0253 49.2396 90.8063 49.4669 90.6051C49.6965 90.4015 49.9605 90.1979 50.2588 89.9943L51.3099 89.2131C51.5159 89.0781 51.6804 88.9337 51.8035 88.7798C51.929 88.6259 51.9917 88.4247 51.9917 88.1761C51.9917 87.9915 51.9101 87.8127 51.7467 87.6399C51.5857 87.4671 51.3738 87.3807 51.1111 87.3807C50.9264 87.3807 50.7631 87.428 50.621 87.5227C50.4813 87.6151 50.3712 87.7334 50.2907 87.8778C50.2126 88.0199 50.1736 88.1667 50.1736 88.3182C50.1736 88.4886 50.2197 88.6615 50.3121 88.8366C50.4068 89.0095 50.5263 89.187 50.6707 89.3693C50.8175 89.5492 50.969 89.7339 51.1253 89.9233L54.4633 94H53.4548L50.6991 90.6761C50.4434 90.3684 50.2114 90.089 50.0031 89.8381C49.7948 89.5871 49.6291 89.3397 49.5059 89.0959C49.3828 88.852 49.3213 88.5881 49.3213 88.304C49.3213 87.9773 49.3935 87.6908 49.5379 87.4446C49.6847 87.196 49.8895 87.0031 50.1523 86.8658C50.4174 86.7261 50.7275 86.6562 51.0827 86.6562C51.4472 86.6562 51.7609 86.7273 52.0237 86.8693C52.2865 87.009 52.4889 87.1948 52.6309 87.4268C52.773 87.6565 52.844 87.9062 52.844 88.1761C52.844 88.5241 52.7576 88.826 52.5848 89.0817C52.412 89.3374 52.1764 89.5753 51.8781 89.7955L50.4292 90.875C50.1025 91.1165 49.8812 91.3509 49.7652 91.5781C49.6492 91.8054 49.5912 91.9687 49.5912 92.0682C49.5912 92.2955 49.6504 92.5073 49.7687 92.7038C49.8871 92.9003 50.054 93.0589 50.2694 93.1797C50.4849 93.3004 50.737 93.3608 51.0258 93.3608C51.3005 93.3608 51.568 93.3028 51.8284 93.1868C52.0888 93.0684 52.3244 92.898 52.5351 92.6754C52.7481 92.4529 52.9162 92.1854 53.0393 91.8729C53.1648 91.5604 53.2275 91.2088 53.2275 90.8182H54.0372C54.0372 91.3011 53.9816 91.6953 53.8703 92.0007C53.759 92.3061 53.6336 92.5452 53.4939 92.718C53.3542 92.8909 53.2417 93.0199 53.1565 93.1051C53.1281 93.1406 53.1021 93.1761 53.0784 93.2116C53.0547 93.2472 53.0287 93.2827 53.0003 93.3182C52.7659 93.581 52.47 93.7775 52.1125 93.9077C51.755 94.0355 51.4023 94.0994 51.0542 94.0994ZM64.1695 89H63.2888C63.2367 88.7467 63.1456 88.5241 63.0154 88.3324C62.8875 88.1406 62.7313 87.9796 62.5466 87.8494C62.3643 87.7169 62.1619 87.6174 61.9394 87.5511C61.7168 87.4848 61.4848 87.4517 61.2433 87.4517C60.803 87.4517 60.4041 87.563 60.0466 87.7855C59.6915 88.008 59.4086 88.3359 59.1979 88.7692C58.9896 89.2024 58.8854 89.7339 58.8854 90.3636C58.8854 90.9934 58.9896 91.5249 59.1979 91.9581C59.4086 92.3913 59.6915 92.7192 60.0466 92.9418C60.4041 93.1643 60.803 93.2756 61.2433 93.2756C61.4848 93.2756 61.7168 93.2424 61.9394 93.1761C62.1619 93.1098 62.3643 93.0116 62.5466 92.8814C62.7313 92.7488 62.8875 92.5866 63.0154 92.3949C63.1456 92.2008 63.2367 91.9782 63.2888 91.7273H64.1695C64.1032 92.099 63.9825 92.4316 63.8073 92.7251C63.6321 93.0187 63.4143 93.2685 63.1539 93.4744C62.8934 93.678 62.6011 93.8331 62.2767 93.9396C61.9548 94.0462 61.6103 94.0994 61.2433 94.0994C60.6231 94.0994 60.0715 93.9479 59.5885 93.6449C59.1056 93.3419 58.7256 92.911 58.4486 92.3523C58.1716 91.7936 58.0331 91.1307 58.0331 90.3636C58.0331 89.5966 58.1716 88.9337 58.4486 88.375C58.7256 87.8163 59.1056 87.3854 59.5885 87.0824C60.0715 86.7794 60.6231 86.6278 61.2433 86.6278C61.6103 86.6278 61.9548 86.6811 62.2767 86.7876C62.6011 86.8942 62.8934 87.0504 63.1539 87.2564C63.4143 87.46 63.6321 87.7086 63.8073 88.0021C63.9825 88.2933 64.1032 88.6259 64.1695 89ZM67.6949 94.1136C67.2024 94.1136 66.7704 93.9964 66.3987 93.7621C66.0294 93.5277 65.7406 93.1998 65.5322 92.7784C65.3263 92.357 65.2233 91.8646 65.2233 91.3011C65.2233 90.733 65.3263 90.237 65.5322 89.8132C65.7406 89.3894 66.0294 89.0604 66.3987 88.826C66.7704 88.5916 67.2024 88.4744 67.6949 88.4744C68.1873 88.4744 68.6182 88.5916 68.9875 88.826C69.3592 89.0604 69.648 89.3894 69.854 89.8132C70.0623 90.237 70.1665 90.733 70.1665 91.3011C70.1665 91.8646 70.0623 92.357 69.854 92.7784C69.648 93.1998 69.3592 93.5277 68.9875 93.7621C68.6182 93.9964 68.1873 94.1136 67.6949 94.1136ZM67.6949 93.3608C68.0689 93.3608 68.3767 93.2649 68.6182 93.0732C68.8596 92.8814 69.0384 92.6293 69.1544 92.3168C69.2704 92.0043 69.3284 91.6657 69.3284 91.3011C69.3284 90.9366 69.2704 90.5968 69.1544 90.282C69.0384 89.9671 68.8596 89.7126 68.6182 89.5185C68.3767 89.3243 68.0689 89.2273 67.6949 89.2273C67.3208 89.2273 67.0131 89.3243 66.7716 89.5185C66.5301 89.7126 66.3514 89.9671 66.2354 90.282C66.1193 90.5968 66.0613 90.9366 66.0613 91.3011C66.0613 91.6657 66.1193 92.0043 66.2354 92.3168C66.3514 92.6293 66.5301 92.8814 66.7716 93.0732C67.0131 93.2649 67.3208 93.3608 67.6949 93.3608ZM73.8747 88.5455V89.2557H70.9344V88.5455H73.8747ZM71.8151 94V87.7926C71.8151 87.4801 71.8885 87.2197 72.0352 87.0114C72.182 86.803 72.3726 86.6468 72.607 86.5426C72.8414 86.4384 73.0887 86.3864 73.3492 86.3864C73.5551 86.3864 73.7232 86.4029 73.8534 86.4361C73.9836 86.4692 74.0807 86.5 74.1446 86.5284L73.9031 87.2528C73.8605 87.2386 73.8013 87.2209 73.7256 87.1996C73.6522 87.1783 73.5551 87.1676 73.4344 87.1676C73.1574 87.1676 72.9574 87.2375 72.8343 87.3771C72.7135 87.5168 72.6531 87.7216 72.6531 87.9915V94H71.8151ZM77.1116 94.1136C76.586 94.1136 76.1327 93.9976 75.7515 93.7656C75.3727 93.5312 75.0803 93.2045 74.8744 92.7855C74.6708 92.3641 74.569 91.8741 74.569 91.3153C74.569 90.7566 74.6708 90.2642 74.8744 89.8381C75.0803 89.4096 75.3668 89.0758 75.7338 88.8366C76.1031 88.5952 76.5339 88.4744 77.0264 88.4744C77.3105 88.4744 77.591 88.5218 77.868 88.6165C78.145 88.7112 78.3971 88.8651 78.6244 89.0781C78.8517 89.2888 79.0328 89.5682 79.1677 89.9162C79.3026 90.2642 79.3701 90.6927 79.3701 91.2017V91.5568H75.1656V90.8324H78.5178C78.5178 90.5246 78.4563 90.25 78.3332 90.0085C78.2124 89.767 78.0396 89.5765 77.8147 89.4368C77.5922 89.2971 77.3294 89.2273 77.0264 89.2273C76.6926 89.2273 76.4037 89.3101 76.1599 89.4759C75.9184 89.6392 75.7326 89.8523 75.6024 90.1151C75.4722 90.3778 75.407 90.6596 75.407 90.9602V91.4432C75.407 91.8551 75.4781 92.2043 75.6201 92.4908C75.7645 92.7749 75.9646 92.9915 76.2203 93.1406C76.4759 93.2874 76.7731 93.3608 77.1116 93.3608C77.3318 93.3608 77.5306 93.33 77.7082 93.2685C77.8881 93.2045 78.0432 93.1098 78.1734 92.9844C78.3036 92.8565 78.4042 92.6979 78.4752 92.5085L79.2849 92.7358C79.1997 93.0104 79.0564 93.2519 78.8552 93.4602C78.654 93.6662 78.4054 93.8272 78.1095 93.9432C77.8135 94.0568 77.4809 94.1136 77.1116 94.1136ZM82.9319 94.1136C82.4063 94.1136 81.953 93.9976 81.5718 93.7656C81.193 93.5312 80.9007 93.2045 80.6947 92.7855C80.4911 92.3641 80.3893 91.8741 80.3893 91.3153C80.3893 90.7566 80.4911 90.2642 80.6947 89.8381C80.9007 89.4096 81.1871 89.0758 81.5541 88.8366C81.9234 88.5952 82.3543 88.4744 82.8467 88.4744C83.1308 88.4744 83.4113 88.5218 83.6883 88.6165C83.9653 88.7112 84.2174 88.8651 84.4447 89.0781C84.672 89.2888 84.8531 89.5682 84.988 89.9162C85.123 90.2642 85.1904 90.6927 85.1904 91.2017V91.5568H80.9859V90.8324H84.3382C84.3382 90.5246 84.2766 90.25 84.1535 90.0085C84.0328 89.767 83.8599 89.5765 83.635 89.4368C83.4125 89.2971 83.1497 89.2273 82.8467 89.2273C82.5129 89.2273 82.224 89.3101 81.9802 89.4759C81.7387 89.6392 81.5529 89.8523 81.4227 90.1151C81.2925 90.3778 81.2274 90.6596 81.2274 90.9602V91.4432C81.2274 91.8551 81.2984 92.2043 81.4404 92.4908C81.5848 92.7749 81.7849 92.9915 82.0406 93.1406C82.2963 93.2874 82.5934 93.3608 82.9319 93.3608C83.1521 93.3608 83.3509 93.33 83.5285 93.2685C83.7084 93.2045 83.8635 93.1098 83.9937 92.9844C84.1239 92.8565 84.2245 92.6979 84.2955 92.5085L85.1052 92.7358C85.02 93.0104 84.8767 93.2519 84.6755 93.4602C84.4743 93.6662 84.2257 93.8272 83.9298 93.9432C83.6338 94.0568 83.3012 94.1136 82.9319 94.1136Z" fill="white"/>
<path d="M28.0749 50.35C25.7649 50.35 23.8166 49.8133 22.2299 48.74C20.6433 47.6667 19.4416 46.1733 18.6249 44.26C17.8316 42.3233 17.4349 40.06 17.4349 37.47C17.4349 34.95 17.8549 32.7333 18.6949 30.82C19.5583 28.8833 20.8183 27.3783 22.4749 26.305C24.1549 25.2083 26.2199 24.66 28.6699 24.66C30.2566 24.66 31.5749 24.835 32.6249 25.185C33.6749 25.5117 34.4566 25.9783 34.9699 26.585C35.4833 27.1683 35.7399 27.8333 35.7399 28.58C35.7399 29.3267 35.4483 29.9217 34.8649 30.365C34.2816 30.8083 33.5583 31.03 32.6949 31.03C32.6949 30.3067 32.5666 29.6067 32.3099 28.93C32.0533 28.23 31.6216 27.6583 31.0149 27.215C30.4316 26.7483 29.6266 26.515 28.5999 26.515C26.8499 26.515 25.4383 26.9467 24.3649 27.81C23.2916 28.65 22.5099 29.8867 22.0199 31.52C21.5533 33.1533 21.3199 35.1367 21.3199 37.47C21.3199 39.5467 21.5649 41.39 22.0549 43C22.5683 44.5867 23.3616 45.8233 24.4349 46.71C25.5083 47.5967 26.8966 48.04 28.5999 48.04C29.7433 48.04 30.7116 47.9 31.5049 47.62C32.2983 47.34 32.9633 46.9783 33.4999 46.535C34.0599 46.0683 34.5383 45.5783 34.9349 45.065C35.1216 45.1817 35.2733 45.3567 35.3899 45.59C35.5299 45.8 35.5999 46.08 35.5999 46.43C35.5999 46.8733 35.4483 47.3283 35.1449 47.795C34.8416 48.2383 34.3866 48.6583 33.7799 49.055C33.1733 49.4283 32.3916 49.7433 31.4349 50C30.5016 50.2333 29.3816 50.35 28.0749 50.35ZM49.924 50.35C47.4506 50.35 45.3973 49.8133 43.764 48.74C42.1306 47.6667 40.9056 46.1617 40.089 44.225C39.2956 42.2883 38.899 40.025 38.899 37.435C38.899 34.845 39.2956 32.5933 40.089 30.68C40.9056 28.7667 42.1306 27.285 43.764 26.235C45.4206 25.1617 47.4856 24.625 49.959 24.625C52.3156 24.625 54.299 25.1617 55.909 26.235C57.5423 27.285 58.779 28.7783 59.619 30.715C60.4823 32.6283 60.914 34.88 60.914 37.47C60.914 40.06 60.4823 42.3233 59.619 44.26C58.779 46.1733 57.5423 47.6667 55.909 48.74C54.2756 49.8133 52.2806 50.35 49.924 50.35ZM49.924 48.46C51.2306 48.46 52.3273 48.215 53.214 47.725C54.124 47.235 54.859 46.5233 55.419 45.59C55.979 44.6333 56.3873 43.4783 56.644 42.125C56.9006 40.7483 57.029 39.1967 57.029 37.47C57.029 35.7433 56.9006 34.2033 56.644 32.85C56.3873 31.4967 55.979 30.3533 55.419 29.42C54.8823 28.4633 54.159 27.74 53.249 27.25C52.3623 26.76 51.2656 26.515 49.959 26.515C48.6523 26.515 47.544 26.76 46.634 27.25C45.724 27.74 44.9773 28.4633 44.394 29.42C43.834 30.3533 43.4256 31.4967 43.169 32.85C42.9123 34.2033 42.784 35.7433 42.784 37.47C42.784 39.1967 42.9123 40.7483 43.169 42.125C43.4256 43.4783 43.834 44.6333 44.394 45.59C44.9773 46.5233 45.724 47.235 46.634 47.725C47.544 48.215 48.6406 48.46 49.924 48.46ZM64.2455 50V48.53H64.7005C65.2139 48.53 65.6805 48.4833 66.1005 48.39C66.5439 48.2733 66.8939 48.0517 67.1505 47.725C67.4305 47.375 67.5705 46.8617 67.5705 46.185V28.86C67.5705 28.16 67.4305 27.6467 67.1505 27.32C66.8939 26.97 66.5439 26.7483 66.1005 26.655C65.6805 26.5383 65.2139 26.48 64.7005 26.48H64.2455V25.01H81.8855L82.0605 31.135H80.2405L80.0655 29.63C80.0189 29.0933 79.8789 28.615 79.6455 28.195C79.4122 27.7517 79.0739 27.4017 78.6305 27.145C78.1872 26.8883 77.5922 26.76 76.8455 26.76H71.1055V36.875H79.5405V38.59H71.1055V46.01C71.1055 46.7333 71.2339 47.2817 71.4905 47.655C71.7472 48.005 72.0972 48.2383 72.5405 48.355C72.9839 48.4717 73.4622 48.53 73.9755 48.53H75.1305V50H64.2455ZM18.7011 82V80.53H19.1561C19.6694 80.53 20.1361 80.4833 20.5561 80.39C20.9994 80.2733 21.3494 80.0517 21.6061 79.725C21.8861 79.375 22.0261 78.8617 22.0261 78.185V60.86C22.0261 60.16 21.8861 59.6467 21.6061 59.32C21.3494 58.97 20.9994 58.7483 20.5561 58.655C20.1361 58.5383 19.6694 58.48 19.1561 58.48H18.7011V57.01H36.3411L36.5161 63.135H34.6961L34.5211 61.63C34.4744 61.0933 34.3344 60.615 34.1011 60.195C33.8678 59.7517 33.5294 59.4017 33.0861 59.145C32.6428 58.8883 32.0478 58.76 31.3011 58.76H25.5611V68.875H33.9961V70.59H25.5611V78.01C25.5611 78.7333 25.6894 79.2817 25.9461 79.655C26.2028 80.005 26.5528 80.2383 26.9961 80.355C27.4394 80.4717 27.9178 80.53 28.4311 80.53H29.5861V82H18.7011ZM39.3456 82V80.53H39.8006C40.314 80.53 40.7806 80.4833 41.2006 80.39C41.644 80.2733 41.994 80.0517 42.2506 79.725C42.5306 79.375 42.6706 78.8617 42.6706 78.185V61C42.6706 60.2533 42.5423 59.705 42.2856 59.355C42.029 59.005 41.679 58.7717 41.2356 58.655C40.8156 58.5383 40.3373 58.48 39.8006 58.48H39.3456V57.01H56.9856L57.1606 63.135H55.3406L55.1656 61.63C55.119 61.1167 54.979 60.65 54.7456 60.23C54.5356 59.7867 54.209 59.4367 53.7656 59.18C53.3456 58.9 52.7856 58.76 52.0856 58.76H46.2056V68.07H54.6406V69.785H46.2056V80.25H52.9606C53.7073 80.25 54.3023 80.1217 54.7456 79.865C55.2123 79.585 55.5623 79.235 55.7956 78.815C56.0523 78.3717 56.2156 77.8933 56.2856 77.38L56.5306 75.875H58.3506L58.1056 82H39.3456ZM61.1523 82V80.53H61.6073C62.1206 80.53 62.5873 80.4833 63.0073 80.39C63.4506 80.2733 63.8006 80.0517 64.0573 79.725C64.3373 79.375 64.4773 78.8617 64.4773 78.185V61C64.4773 60.2533 64.3489 59.705 64.0923 59.355C63.8356 59.005 63.4856 58.7717 63.0423 58.655C62.6223 58.5383 62.1439 58.48 61.6073 58.48H61.1523V57.01H78.7923L78.9673 63.135H77.1473L76.9723 61.63C76.9256 61.1167 76.7856 60.65 76.5523 60.23C76.3423 59.7867 76.0156 59.4367 75.5723 59.18C75.1523 58.9 74.5923 58.76 73.8923 58.76H68.0123V68.07H76.4473V69.785H68.0123V80.25H74.7673C75.5139 80.25 76.1089 80.1217 76.5523 79.865C77.0189 79.585 77.3689 79.235 77.6023 78.815C77.8589 78.3717 78.0223 77.8933 78.0923 77.38L78.3373 75.875H80.1573L79.9123 82H61.1523Z" fill="white"/>
</svg>
